<svg width="126" height="51" viewBox="0 0 126 51" fill="none" xmlns="http://www.w3.org/2000/svg">
<path d="M0.261406 41H3.02141V21.98H18.9214V19.58H3.02141V3.86H21.8014V1.46H0.261406V41ZM26.0609 41.72C27.3809 41.72 28.5809 40.7 28.5809 39.02C28.5809 37.28 27.3809 36.26 26.0609 36.26C24.7409 36.26 23.4809 37.28 23.4809 39.02C23.4809 40.7 24.7409 41.72 26.0609 41.72ZM43.8659 17.72C45.4859 13.04 46.8659 8.9 48.2459 4.04H48.4859C49.8659 8.9 51.2459 13.04 52.8659 17.72L55.3859 25.1H41.3459L43.8659 17.72ZM33.0659 41H35.8259L40.5059 27.44H56.1659L60.7859 41H63.6659L49.7459 1.46H46.9859L33.0659 41ZM70.768 41.72C72.088 41.72 73.288 40.7 73.288 39.02C73.288 37.28 72.088 36.26 70.768 36.26C69.448 36.26 68.188 37.28 68.188 39.02C68.188 40.7 69.448 41.72 70.768 41.72ZM96.853 39.38C88.813 39.38 83.473 32.12 83.473 21.08C83.473 10.16 88.813 3.26 96.853 3.26C104.893 3.26 110.233 10.16 110.233 21.08C110.233 32.12 104.893 39.38 96.853 39.38ZM108.433 50.36C110.413 50.36 112.273 49.94 113.293 49.64L112.693 47.3C111.673 47.54 110.473 47.78 108.673 47.78C103.753 47.78 100.153 45.62 98.353 41.66C107.113 40.82 113.173 32.96 113.173 21.08C113.173 8.6 106.393 0.74 96.853 0.74C87.373 0.74 80.593 8.6 80.593 21.08C80.593 32.9 86.653 40.82 95.293 41.66C97.273 46.64 101.773 50.36 108.433 50.36ZM123.034 41.72C124.354 41.72 125.554 40.7 125.554 39.02C125.554 37.28 124.354 36.26 123.034 36.26C121.714 36.26 120.454 37.28 120.454 39.02C120.454 40.7 121.714 41.72 123.034 41.72Z" fill="#071629"/>
</svg>
