<svg width="230" height="31" viewBox="0 0 230 31" fill="none" xmlns="http://www.w3.org/2000/svg">
<path d="M0.917125 24H5.62113V15.904H12.8531V11.936H5.62113V7.104H14.0691V3.136H0.917125V24ZM16.6894 24H21.3934V14.784C22.2254 12.64 23.6974 11.872 24.8814 11.872C25.5534 11.872 26.0334 11.968 26.6094 12.128L27.3774 8.064C26.9294 7.872 26.3854 7.744 25.4894 7.744C23.8574 7.744 22.1294 8.768 20.9774 10.912H20.8494L20.5294 8.128H16.6894V24ZM36.2309 24.384C38.1189 24.384 40.2309 23.712 41.8629 22.592L40.2949 19.744C39.1429 20.448 38.0549 20.8 36.8709 20.8C34.7589 20.8 33.1589 19.744 32.7429 17.44H42.2469C42.3429 17.056 42.4389 16.192 42.4389 15.36C42.4389 11.04 40.1989 7.744 35.6869 7.744C31.8789 7.744 28.1989 10.912 28.1989 16.064C28.1989 21.312 31.6869 24.384 36.2309 24.384ZM32.7109 14.336C33.0309 12.32 34.3109 11.328 35.7829 11.328C37.6709 11.328 38.4389 12.576 38.4389 14.336H32.7109ZM52.7934 24.384C54.6814 24.384 56.7934 23.712 58.4254 22.592L56.8574 19.744C55.7054 20.448 54.6174 20.8 53.4334 20.8C51.3214 20.8 49.7214 19.744 49.3054 17.44H58.8094C58.9054 17.056 59.0014 16.192 59.0014 15.36C59.0014 11.04 56.7614 7.744 52.2494 7.744C48.4414 7.744 44.7614 10.912 44.7614 16.064C44.7614 21.312 48.2494 24.384 52.7934 24.384ZM49.2734 14.336C49.5934 12.32 50.8734 11.328 52.3454 11.328C54.2334 11.328 55.0014 12.576 55.0014 14.336H49.2734Z" fill="#C271FF"/>
<path d="M69.5221 24H70.9301V12.416C72.6261 10.496 74.1621 9.536 75.5381 9.536C77.9061 9.536 78.9941 11.072 78.9941 14.336V24H80.4021V12.416C82.0981 10.496 83.5701 9.536 85.0101 9.536C87.3461 9.536 88.4341 11.072 88.4341 14.336V24H89.8741V14.144C89.8741 10.176 88.3381 8.256 85.2661 8.256C83.5061 8.256 81.8101 9.472 80.0501 11.392C79.5061 9.504 78.2581 8.256 75.7941 8.256C74.0981 8.256 72.3381 9.44 70.9621 11.008H70.8661L70.7381 8.64H69.5221V24ZM101.315 24.384C103.555 24.384 104.931 23.616 106.147 22.88L105.571 21.792C104.419 22.624 103.107 23.168 101.443 23.168C97.9869 23.168 95.7149 20.384 95.6509 16.512H106.723C106.787 16.128 106.787 15.744 106.787 15.36C106.787 10.848 104.547 8.256 100.899 8.256C97.4749 8.256 94.2109 11.328 94.2109 16.352C94.2109 21.376 97.3789 24.384 101.315 24.384ZM95.6509 15.36C95.9709 11.68 98.3069 9.472 100.931 9.472C103.683 9.472 105.443 11.424 105.443 15.36H95.6509ZM110.96 24H112.368V12.416C114.064 10.496 115.6 9.536 116.976 9.536C119.344 9.536 120.432 11.072 120.432 14.336V24H121.84V12.416C123.536 10.496 125.008 9.536 126.448 9.536C128.784 9.536 129.872 11.072 129.872 14.336V24H131.312V14.144C131.312 10.176 129.776 8.256 126.704 8.256C124.944 8.256 123.248 9.472 121.488 11.392C120.944 9.504 119.696 8.256 117.232 8.256C115.536 8.256 113.776 9.44 112.4 11.008H112.304L112.176 8.64H110.96V24ZM142.944 24.384C146.56 24.384 149.728 21.312 149.728 16.096C149.728 11.328 147.68 8.256 143.584 8.256C141.696 8.256 139.84 9.344 138.272 10.656L138.336 7.648V0.991999H136.928V24H138.112L138.272 22.432H138.336C139.776 23.616 141.472 24.384 142.944 24.384ZM142.88 23.136C141.696 23.136 140.032 22.592 138.336 21.152V12.032C140.16 10.4 141.824 9.504 143.36 9.504C146.88 9.504 148.224 12.32 148.224 16.096C148.224 20.256 145.984 23.136 142.88 23.136ZM160.096 24.384C162.336 24.384 163.712 23.616 164.928 22.88L164.352 21.792C163.2 22.624 161.888 23.168 160.224 23.168C156.768 23.168 154.496 20.384 154.432 16.512H165.504C165.568 16.128 165.568 15.744 165.568 15.36C165.568 10.848 163.328 8.256 159.68 8.256C156.256 8.256 152.992 11.328 152.992 16.352C152.992 21.376 156.16 24.384 160.096 24.384ZM154.432 15.36C154.752 11.68 157.088 9.472 159.712 9.472C162.464 9.472 164.224 11.424 164.224 15.36H154.432ZM169.741 24H171.149V13.536C172.333 10.656 173.965 9.6 175.341 9.6C175.949 9.6 176.237 9.664 176.749 9.856L177.069 8.576C176.557 8.32 176.109 8.256 175.533 8.256C173.709 8.256 172.205 9.6 171.181 11.488H171.085L170.957 8.64H169.741V24ZM183.609 24.384C186.937 24.384 188.793 22.368 188.793 20.064C188.793 17.056 186.169 16.256 183.769 15.36C181.945 14.688 180.153 14.016 180.153 12.256C180.153 10.848 181.241 9.472 183.609 9.472C185.177 9.472 186.265 10.08 187.289 10.848L188.057 9.856C186.937 8.928 185.305 8.256 183.673 8.256C180.473 8.256 178.713 10.112 178.713 12.352C178.713 14.976 181.273 15.904 183.609 16.736C185.369 17.376 187.353 18.208 187.353 20.128C187.353 21.76 186.105 23.168 183.705 23.168C181.497 23.168 180.121 22.304 178.809 21.216L177.977 22.272C179.353 23.424 181.337 24.384 183.609 24.384ZM192.866 24H194.274V12.416C196.162 10.496 197.474 9.536 199.298 9.536C201.794 9.536 202.818 11.072 202.818 14.336V24H204.226V14.144C204.226 10.176 202.754 8.256 199.586 8.256C197.474 8.256 195.874 9.44 194.274 11.04V0.991999H192.866V24ZM209.772 24H211.18V8.64H209.772V24ZM210.508 4.928C211.212 4.928 211.788 4.416 211.788 3.68C211.788 2.88 211.212 2.4 210.508 2.4C209.804 2.4 209.228 2.88 209.228 3.68C209.228 4.416 209.804 4.928 210.508 4.928ZM217.085 30.944H218.493V22.496C220.093 23.68 221.661 24.384 223.101 24.384C226.717 24.384 229.885 21.312 229.885 16.096C229.885 11.328 227.837 8.256 223.741 8.256C221.853 8.256 220.029 9.376 218.525 10.56H218.429L218.301 8.64H217.085V30.944ZM223.037 23.136C221.853 23.136 220.253 22.592 218.493 21.152V12.032C220.349 10.4 221.981 9.504 223.517 9.504C227.037 9.504 228.381 12.32 228.381 16.096C228.381 20.256 226.141 23.136 223.037 23.136Z" fill="white"/>
</svg>
