<svg width="257" height="153" viewBox="0 0 257 153" fill="none" xmlns="http://www.w3.org/2000/svg">
<path d="M47.6604 119H52.8404V118.006H48.8224V109.816H47.6604V119ZM56.8389 119.168C58.5049 119.168 59.9889 117.866 59.9889 115.612C59.9889 113.33 58.5049 112.028 56.8389 112.028C55.1729 112.028 53.6889 113.33 53.6889 115.612C53.6889 117.866 55.1729 119.168 56.8389 119.168ZM56.8389 118.216C55.6769 118.216 54.8789 117.166 54.8789 115.612C54.8789 114.044 55.6769 112.98 56.8389 112.98C58.0149 112.98 58.7989 114.044 58.7989 115.612C58.7989 117.166 58.0149 118.216 56.8389 118.216ZM61.7808 119H62.9288V114.632C63.3908 113.484 64.0768 113.064 64.6508 113.064C64.9308 113.064 65.0848 113.106 65.3088 113.176L65.5328 112.168C65.3088 112.07 65.0988 112.028 64.8048 112.028C64.0348 112.028 63.3348 112.574 62.8728 113.428H62.8308L62.7328 112.196H61.7808V119ZM69.2556 119.168C70.1796 119.168 70.9076 118.846 71.4956 118.468L71.0896 117.712C70.5856 118.034 70.0396 118.244 69.3956 118.244C68.0936 118.244 67.2116 117.32 67.1276 115.878H71.7196C71.7476 115.71 71.7616 115.458 71.7616 115.22C71.7616 113.274 70.7816 112.028 69.0456 112.028C67.4916 112.028 65.9936 113.386 65.9936 115.612C65.9936 117.838 67.4356 119.168 69.2556 119.168ZM67.1136 115.052C67.2536 113.708 68.1216 112.938 69.0736 112.938C70.1376 112.938 70.7536 113.68 70.7536 115.052H67.1136ZM73.4429 119H74.5909V114.072C75.2209 113.372 75.7949 113.022 76.2989 113.022C77.1669 113.022 77.5729 113.568 77.5729 114.842V119H78.7209V114.072C79.3509 113.372 79.8969 113.022 80.4289 113.022C81.2829 113.022 81.6889 113.568 81.6889 114.842V119H82.8369V114.688C82.8369 112.952 82.1649 112.028 80.7649 112.028C79.9389 112.028 79.2389 112.56 78.5249 113.33C78.2449 112.518 77.6849 112.028 76.6489 112.028C75.8369 112.028 75.1229 112.532 74.5349 113.176H74.4929L74.3949 112.196H73.4429V119ZM87.8531 119H89.0011V112.196H87.8531V119ZM88.4411 110.796C88.8891 110.796 89.2391 110.488 89.2391 110.054C89.2391 109.606 88.8891 109.312 88.4411 109.312C87.9931 109.312 87.6431 109.606 87.6431 110.054C87.6431 110.488 87.9931 110.796 88.4411 110.796ZM91.2984 121.87H92.4464V119.574L92.4184 118.384C93.0484 118.874 93.6784 119.168 94.3084 119.168C95.8624 119.168 97.2484 117.81 97.2484 115.5C97.2484 113.386 96.3104 112.028 94.5604 112.028C93.7624 112.028 93.0064 112.462 92.3904 112.98H92.3484L92.2504 112.196H91.2984V121.87ZM94.1124 118.202C93.6644 118.202 93.0624 118.006 92.4464 117.488V113.918C93.1184 113.316 93.6924 112.994 94.2664 112.994C95.5544 112.994 96.0584 114.002 96.0584 115.5C96.0584 117.18 95.2324 118.202 94.1124 118.202ZM100.842 119.168C102.452 119.168 103.334 118.244 103.334 117.138C103.334 115.85 102.242 115.444 101.262 115.08C100.492 114.786 99.75 114.548 99.75 113.904C99.75 113.386 100.142 112.924 100.996 112.924C101.598 112.924 102.088 113.176 102.55 113.526L103.096 112.798C102.578 112.378 101.836 112.028 100.982 112.028C99.512 112.028 98.644 112.868 98.644 113.96C98.644 115.108 99.708 115.57 100.674 115.92C101.416 116.2 102.228 116.508 102.228 117.208C102.228 117.796 101.78 118.272 100.884 118.272C100.072 118.272 99.47 117.936 98.882 117.46L98.308 118.23C98.952 118.762 99.876 119.168 100.842 119.168ZM106.917 119.168C107.855 119.168 108.527 118.678 109.157 117.936H109.199L109.297 119H110.249V112.196H109.101V117.026C108.457 117.824 107.967 118.174 107.267 118.174C106.371 118.174 105.993 117.628 105.993 116.354V112.196H104.831V116.508C104.831 118.244 105.475 119.168 106.917 119.168ZM112.544 119H113.692V114.072C114.322 113.372 114.896 113.022 115.4 113.022C116.268 113.022 116.674 113.568 116.674 114.842V119H117.822V114.072C118.452 113.372 118.998 113.022 119.53 113.022C120.384 113.022 120.79 113.568 120.79 114.842V119H121.938V114.688C121.938 112.952 121.266 112.028 119.866 112.028C119.04 112.028 118.34 112.56 117.626 113.33C117.346 112.518 116.786 112.028 115.75 112.028C114.938 112.028 114.224 112.532 113.636 113.176H113.594L113.496 112.196H112.544V119ZM129.279 119.168C130.077 119.168 130.805 118.72 131.337 118.202H131.379L131.477 119H132.429V109.032H131.267V111.65L131.323 112.812C130.721 112.322 130.203 112.028 129.419 112.028C127.865 112.028 126.465 113.4 126.465 115.612C126.465 117.88 127.571 119.168 129.279 119.168ZM129.531 118.202C128.341 118.202 127.655 117.222 127.655 115.598C127.655 114.044 128.523 112.994 129.615 112.994C130.175 112.994 130.693 113.19 131.267 113.708V117.264C130.707 117.894 130.161 118.202 129.531 118.202ZM137.366 119.168C139.032 119.168 140.516 117.866 140.516 115.612C140.516 113.33 139.032 112.028 137.366 112.028C135.7 112.028 134.216 113.33 134.216 115.612C134.216 117.866 135.7 119.168 137.366 119.168ZM137.366 118.216C136.204 118.216 135.406 117.166 135.406 115.612C135.406 114.044 136.204 112.98 137.366 112.98C138.542 112.98 139.326 114.044 139.326 115.612C139.326 117.166 138.542 118.216 137.366 118.216ZM143.526 119.168C143.834 119.168 144.03 119.126 144.184 119.056L144.03 118.188C143.904 118.216 143.848 118.216 143.778 118.216C143.61 118.216 143.456 118.076 143.456 117.712V109.032H142.308V117.628C142.308 118.622 142.658 119.168 143.526 119.168ZM148.523 119.168C150.189 119.168 151.673 117.866 151.673 115.612C151.673 113.33 150.189 112.028 148.523 112.028C146.857 112.028 145.373 113.33 145.373 115.612C145.373 117.866 146.857 119.168 148.523 119.168ZM148.523 118.216C147.361 118.216 146.563 117.166 146.563 115.612C146.563 114.044 147.361 112.98 148.523 112.98C149.699 112.98 150.483 114.044 150.483 115.612C150.483 117.166 149.699 118.216 148.523 118.216ZM153.464 119H154.612V114.632C155.074 113.484 155.76 113.064 156.334 113.064C156.614 113.064 156.768 113.106 156.992 113.176L157.216 112.168C156.992 112.07 156.782 112.028 156.488 112.028C155.718 112.028 155.018 112.574 154.556 113.428H154.514L154.416 112.196H153.464V119ZM162.899 119.168C164.509 119.168 165.391 118.244 165.391 117.138C165.391 115.85 164.299 115.444 163.319 115.08C162.549 114.786 161.807 114.548 161.807 113.904C161.807 113.386 162.199 112.924 163.053 112.924C163.655 112.924 164.145 113.176 164.607 113.526L165.153 112.798C164.635 112.378 163.893 112.028 163.039 112.028C161.569 112.028 160.701 112.868 160.701 113.96C160.701 115.108 161.765 115.57 162.731 115.92C163.473 116.2 164.285 116.508 164.285 117.208C164.285 117.796 163.837 118.272 162.941 118.272C162.129 118.272 161.527 117.936 160.939 117.46L160.365 118.23C161.009 118.762 161.933 119.168 162.899 119.168ZM166.986 119H168.134V112.196H166.986V119ZM167.574 110.796C168.022 110.796 168.372 110.488 168.372 110.054C168.372 109.606 168.022 109.312 167.574 109.312C167.126 109.312 166.776 109.606 166.776 110.054C166.776 110.488 167.126 110.796 167.574 110.796ZM172.573 119.168C172.993 119.168 173.455 119.042 173.833 118.916L173.609 118.048C173.385 118.132 173.077 118.23 172.839 118.23C172.055 118.23 171.789 117.754 171.789 116.914V113.134H173.623V112.196H171.789V110.292H170.823L170.683 112.196L169.619 112.266V113.134H170.627V116.9C170.627 118.244 171.117 119.168 172.573 119.168ZM179.532 119.168C180.386 119.168 181.142 118.72 181.786 118.188H181.828L181.926 119H182.878V114.828C182.878 113.134 182.178 112.028 180.512 112.028C179.42 112.028 178.468 112.504 177.838 112.91L178.286 113.708C178.818 113.344 179.532 112.98 180.316 112.98C181.436 112.98 181.716 113.82 181.716 114.688C178.818 115.01 177.544 115.752 177.544 117.236C177.544 118.454 178.398 119.168 179.532 119.168ZM179.868 118.244C179.196 118.244 178.664 117.922 178.664 117.152C178.664 116.284 179.448 115.724 181.716 115.444V117.334C181.058 117.922 180.526 118.244 179.868 118.244ZM185.019 119H186.167V114.072C186.797 113.372 187.371 113.022 187.875 113.022C188.743 113.022 189.149 113.568 189.149 114.842V119H190.297V114.072C190.927 113.372 191.473 113.022 192.005 113.022C192.859 113.022 193.265 113.568 193.265 114.842V119H194.413V114.688C194.413 112.952 193.741 112.028 192.341 112.028C191.515 112.028 190.815 112.56 190.101 113.33C189.821 112.518 189.261 112.028 188.225 112.028C187.413 112.028 186.699 112.532 186.111 113.176H186.069L185.971 112.196H185.019V119ZM199.385 119.168C200.309 119.168 201.037 118.846 201.625 118.468L201.219 117.712C200.715 118.034 200.169 118.244 199.525 118.244C198.223 118.244 197.341 117.32 197.257 115.878H201.849C201.877 115.71 201.891 115.458 201.891 115.22C201.891 113.274 200.911 112.028 199.175 112.028C197.621 112.028 196.123 113.386 196.123 115.612C196.123 117.838 197.565 119.168 199.385 119.168ZM197.243 115.052C197.383 113.708 198.251 112.938 199.203 112.938C200.267 112.938 200.883 113.68 200.883 115.052H197.243ZM205.577 119.168C205.997 119.168 206.459 119.042 206.837 118.916L206.613 118.048C206.389 118.132 206.081 118.23 205.843 118.23C205.059 118.23 204.793 117.754 204.793 116.914V113.134H206.627V112.196H204.793V110.292H203.827L203.687 112.196L202.623 112.266V113.134H203.631V116.9C203.631 118.244 204.121 119.168 205.577 119.168ZM208.051 121.38C209.185 120.904 209.885 119.966 209.885 118.762C209.885 117.922 209.521 117.404 208.919 117.404C208.457 117.404 208.065 117.712 208.065 118.216C208.065 118.734 208.443 119.014 208.891 119.014C208.933 119.014 208.989 119.014 209.031 119C209.045 119.742 208.569 120.358 207.771 120.708L208.051 121.38ZM53.9893 145.168C54.8013 145.168 55.5713 144.846 56.1873 144.3L55.6833 143.53C55.2633 143.908 54.7173 144.216 54.0873 144.216C52.8413 144.216 51.9873 143.166 51.9873 141.612C51.9873 140.044 52.8833 138.98 54.1153 138.98C54.6613 138.98 55.0813 139.232 55.4733 139.582L56.0613 138.826C55.5853 138.392 54.9693 138.028 54.0733 138.028C52.3233 138.028 50.7973 139.33 50.7973 141.612C50.7973 143.866 52.1833 145.168 53.9893 145.168ZM60.0313 145.168C61.6973 145.168 63.1813 143.866 63.1813 141.612C63.1813 139.33 61.6973 138.028 60.0313 138.028C58.3653 138.028 56.8813 139.33 56.8813 141.612C56.8813 143.866 58.3653 145.168 60.0313 145.168ZM60.0313 144.216C58.8693 144.216 58.0713 143.166 58.0713 141.612C58.0713 140.044 58.8693 138.98 60.0313 138.98C61.2073 138.98 61.9913 140.044 61.9913 141.612C61.9913 143.166 61.2073 144.216 60.0313 144.216ZM64.9732 145H66.1212V140.072C66.8072 139.386 67.2832 139.022 67.9832 139.022C68.8792 139.022 69.2712 139.568 69.2712 140.842V145H70.4192V140.688C70.4192 138.952 69.7752 138.028 68.3472 138.028C67.4092 138.028 66.7092 138.532 66.0652 139.176H66.0232L65.9252 138.196H64.9732V145ZM74.4074 145.168C76.0174 145.168 76.8994 144.244 76.8994 143.138C76.8994 141.85 75.8074 141.444 74.8274 141.08C74.0574 140.786 73.3154 140.548 73.3154 139.904C73.3154 139.386 73.7074 138.924 74.5614 138.924C75.1634 138.924 75.6534 139.176 76.1154 139.526L76.6614 138.798C76.1434 138.378 75.4014 138.028 74.5474 138.028C73.0774 138.028 72.2094 138.868 72.2094 139.96C72.2094 141.108 73.2734 141.57 74.2394 141.92C74.9814 142.2 75.7934 142.508 75.7934 143.208C75.7934 143.796 75.3454 144.272 74.4494 144.272C73.6374 144.272 73.0354 143.936 72.4474 143.46L71.8734 144.23C72.5174 144.762 73.4414 145.168 74.4074 145.168ZM81.2527 145.168C82.1767 145.168 82.9047 144.846 83.4927 144.468L83.0867 143.712C82.5827 144.034 82.0367 144.244 81.3927 144.244C80.0907 144.244 79.2087 143.32 79.1247 141.878H83.7167C83.7447 141.71 83.7587 141.458 83.7587 141.22C83.7587 139.274 82.7787 138.028 81.0427 138.028C79.4887 138.028 77.9907 139.386 77.9907 141.612C77.9907 143.838 79.4327 145.168 81.2527 145.168ZM79.1107 141.052C79.2507 139.708 80.1187 138.938 81.0707 138.938C82.1347 138.938 82.7507 139.68 82.7507 141.052H79.1107ZM88.128 145.168C88.94 145.168 89.71 144.846 90.326 144.3L89.822 143.53C89.402 143.908 88.856 144.216 88.226 144.216C86.98 144.216 86.126 143.166 86.126 141.612C86.126 140.044 87.022 138.98 88.254 138.98C88.8 138.98 89.22 139.232 89.612 139.582L90.2 138.826C89.724 138.392 89.108 138.028 88.212 138.028C86.462 138.028 84.936 139.33 84.936 141.612C84.936 143.866 86.322 145.168 88.128 145.168ZM93.83 145.168C94.25 145.168 94.712 145.042 95.09 144.916L94.866 144.048C94.642 144.132 94.334 144.23 94.096 144.23C93.312 144.23 93.046 143.754 93.046 142.914V139.134H94.88V138.196H93.046V136.292H92.08L91.94 138.196L90.876 138.266V139.134H91.884V142.9C91.884 144.244 92.374 145.168 93.83 145.168ZM98.9851 145.168C99.9091 145.168 100.637 144.846 101.225 144.468L100.819 143.712C100.315 144.034 99.7691 144.244 99.1251 144.244C97.8231 144.244 96.9411 143.32 96.8571 141.878H101.449C101.477 141.71 101.491 141.458 101.491 141.22C101.491 139.274 100.511 138.028 98.7751 138.028C97.2211 138.028 95.7231 139.386 95.7231 141.612C95.7231 143.838 97.1651 145.168 98.9851 145.168ZM96.8431 141.052C96.9831 139.708 97.8511 138.938 98.8031 138.938C99.8671 138.938 100.483 139.68 100.483 141.052H96.8431ZM105.178 145.168C105.598 145.168 106.06 145.042 106.438 144.916L106.214 144.048C105.99 144.132 105.682 144.23 105.444 144.23C104.66 144.23 104.394 143.754 104.394 142.914V139.134H106.228V138.196H104.394V136.292H103.428L103.288 138.196L102.224 138.266V139.134H103.232V142.9C103.232 144.244 103.722 145.168 105.178 145.168ZM109.754 145.168C110.692 145.168 111.364 144.678 111.994 143.936H112.036L112.134 145H113.086V138.196H111.938V143.026C111.294 143.824 110.804 144.174 110.104 144.174C109.208 144.174 108.83 143.628 108.83 142.354V138.196H107.668V142.508C107.668 144.244 108.312 145.168 109.754 145.168ZM115.381 145H116.529V140.632C116.991 139.484 117.677 139.064 118.251 139.064C118.531 139.064 118.685 139.106 118.909 139.176L119.133 138.168C118.909 138.07 118.699 138.028 118.405 138.028C117.635 138.028 116.935 138.574 116.473 139.428H116.431L116.333 138.196H115.381V145ZM124.606 145.168C125.46 145.168 126.216 144.72 126.86 144.188H126.902L127 145H127.952V140.828C127.952 139.134 127.252 138.028 125.586 138.028C124.494 138.028 123.542 138.504 122.912 138.91L123.36 139.708C123.892 139.344 124.606 138.98 125.39 138.98C126.51 138.98 126.79 139.82 126.79 140.688C123.892 141.01 122.618 141.752 122.618 143.236C122.618 144.454 123.472 145.168 124.606 145.168ZM124.942 144.244C124.27 144.244 123.738 143.922 123.738 143.152C123.738 142.284 124.522 141.724 126.79 141.444V143.334C126.132 143.922 125.6 144.244 124.942 144.244ZM132.416 145.168C133.214 145.168 133.942 144.72 134.474 144.202H134.516L134.614 145H135.566V135.032H134.404V137.65L134.46 138.812C133.858 138.322 133.34 138.028 132.556 138.028C131.002 138.028 129.602 139.4 129.602 141.612C129.602 143.88 130.708 145.168 132.416 145.168ZM132.668 144.202C131.478 144.202 130.792 143.222 130.792 141.598C130.792 140.044 131.66 138.994 132.752 138.994C133.312 138.994 133.83 139.19 134.404 139.708V143.264C133.844 143.894 133.298 144.202 132.668 144.202ZM137.858 145H139.006V138.196H137.858V145ZM138.446 136.796C138.894 136.796 139.244 136.488 139.244 136.054C139.244 135.606 138.894 135.312 138.446 135.312C137.998 135.312 137.648 135.606 137.648 136.054C137.648 136.488 137.998 136.796 138.446 136.796ZM141.303 147.87H142.451V145.574L142.423 144.384C143.053 144.874 143.683 145.168 144.313 145.168C145.867 145.168 147.253 143.81 147.253 141.5C147.253 139.386 146.315 138.028 144.565 138.028C143.767 138.028 143.011 138.462 142.395 138.98H142.353L142.255 138.196H141.303V147.87ZM144.117 144.202C143.669 144.202 143.067 144.006 142.451 143.488V139.918C143.123 139.316 143.697 138.994 144.271 138.994C145.559 138.994 146.063 140.002 146.063 141.5C146.063 143.18 145.237 144.202 144.117 144.202ZM149.069 145H150.217V138.196H149.069V145ZM149.657 136.796C150.105 136.796 150.455 136.488 150.455 136.054C150.455 135.606 150.105 135.312 149.657 135.312C149.209 135.312 148.859 135.606 148.859 136.054C148.859 136.488 149.209 136.796 149.657 136.796ZM154.292 145.168C155.902 145.168 156.784 144.244 156.784 143.138C156.784 141.85 155.692 141.444 154.712 141.08C153.942 140.786 153.2 140.548 153.2 139.904C153.2 139.386 153.592 138.924 154.446 138.924C155.048 138.924 155.538 139.176 156 139.526L156.546 138.798C156.028 138.378 155.286 138.028 154.432 138.028C152.962 138.028 152.094 138.868 152.094 139.96C152.094 141.108 153.158 141.57 154.124 141.92C154.866 142.2 155.678 142.508 155.678 143.208C155.678 143.796 155.23 144.272 154.334 144.272C153.522 144.272 152.92 143.936 152.332 143.46L151.758 144.23C152.402 144.762 153.326 145.168 154.292 145.168ZM161.067 145.168C161.879 145.168 162.649 144.846 163.265 144.3L162.761 143.53C162.341 143.908 161.795 144.216 161.165 144.216C159.919 144.216 159.065 143.166 159.065 141.612C159.065 140.044 159.961 138.98 161.193 138.98C161.739 138.98 162.159 139.232 162.551 139.582L163.139 138.826C162.663 138.392 162.047 138.028 161.151 138.028C159.401 138.028 157.875 139.33 157.875 141.612C157.875 143.866 159.261 145.168 161.067 145.168ZM164.764 145H165.912V138.196H164.764V145ZM165.352 136.796C165.8 136.796 166.15 136.488 166.15 136.054C166.15 135.606 165.8 135.312 165.352 135.312C164.904 135.312 164.554 135.606 164.554 136.054C164.554 136.488 164.904 136.796 165.352 136.796ZM168.21 145H169.358V140.072C170.044 139.386 170.52 139.022 171.22 139.022C172.116 139.022 172.508 139.568 172.508 140.842V145H173.656V140.688C173.656 138.952 173.012 138.028 171.584 138.028C170.646 138.028 169.946 138.532 169.302 139.176H169.26L169.162 138.196H168.21V145ZM178.162 148.136C180.276 148.136 181.606 147.044 181.606 145.784C181.606 144.65 180.808 144.16 179.226 144.16H177.91C176.986 144.16 176.706 143.852 176.706 143.418C176.706 143.04 176.902 142.816 177.14 142.606C177.448 142.76 177.826 142.844 178.162 142.844C179.548 142.844 180.654 141.934 180.654 140.478C180.654 139.904 180.416 139.386 180.094 139.078H181.494V138.196H179.128C178.876 138.098 178.54 138.028 178.162 138.028C176.776 138.028 175.6 138.966 175.6 140.45C175.6 141.262 176.034 141.92 176.482 142.284V142.34C176.132 142.578 175.74 143.026 175.74 143.6C175.74 144.132 176.006 144.496 176.342 144.706V144.762C175.726 145.182 175.348 145.728 175.348 146.302C175.348 147.478 176.496 148.136 178.162 148.136ZM178.162 142.074C177.378 142.074 176.72 141.444 176.72 140.45C176.72 139.456 177.364 138.868 178.162 138.868C178.96 138.868 179.604 139.456 179.604 140.45C179.604 141.444 178.946 142.074 178.162 142.074ZM178.33 147.338C177.098 147.338 176.356 146.876 176.356 146.148C176.356 145.756 176.566 145.35 177.056 145C177.35 145.084 177.672 145.112 177.938 145.112H179.114C179.996 145.112 180.486 145.322 180.486 145.952C180.486 146.666 179.632 147.338 178.33 147.338ZM188.481 145.168C189.405 145.168 190.133 144.846 190.721 144.468L190.315 143.712C189.811 144.034 189.265 144.244 188.621 144.244C187.319 144.244 186.437 143.32 186.353 141.878H190.945C190.973 141.71 190.987 141.458 190.987 141.22C190.987 139.274 190.007 138.028 188.271 138.028C186.717 138.028 185.219 139.386 185.219 141.612C185.219 143.838 186.661 145.168 188.481 145.168ZM186.339 141.052C186.479 139.708 187.347 138.938 188.299 138.938C189.363 138.938 189.979 139.68 189.979 141.052H186.339ZM193.887 145.168C194.195 145.168 194.391 145.126 194.545 145.056L194.391 144.188C194.265 144.216 194.209 144.216 194.139 144.216C193.971 144.216 193.817 144.076 193.817 143.712V135.032H192.669V143.628C192.669 144.622 193.019 145.168 193.887 145.168ZM196.237 145H197.385V138.196H196.237V145ZM196.825 136.796C197.273 136.796 197.623 136.488 197.623 136.054C197.623 135.606 197.273 135.312 196.825 135.312C196.377 135.312 196.027 135.606 196.027 136.054C196.027 136.488 196.377 136.796 196.825 136.796ZM201.824 145.168C202.244 145.168 202.706 145.042 203.084 144.916L202.86 144.048C202.636 144.132 202.328 144.23 202.09 144.23C201.306 144.23 201.04 143.754 201.04 142.914V139.134H202.874V138.196H201.04V136.292H200.074L199.934 138.196L198.87 138.266V139.134H199.878V142.9C199.878 144.244 200.368 145.168 201.824 145.168ZM205.11 145.168C205.558 145.168 205.936 144.804 205.936 144.3C205.936 143.768 205.558 143.404 205.11 143.404C204.648 143.404 204.27 143.768 204.27 144.3C204.27 144.804 204.648 145.168 205.11 145.168Z" fill="white"/>
<path d="M79.5711 81H86.5551V79.236H81.6591V69.228H79.5711V81ZM91.8158 81.216C94.0298 81.216 96.0278 79.524 96.0278 76.59C96.0278 73.638 94.0298 71.946 91.8158 71.946C89.6198 71.946 87.6218 73.638 87.6218 76.59C87.6218 79.524 89.6198 81.216 91.8158 81.216ZM91.8158 79.524C90.5198 79.524 89.7458 78.354 89.7458 76.59C89.7458 74.808 90.5198 73.638 91.8158 73.638C93.1118 73.638 93.9038 74.808 93.9038 76.59C93.9038 78.354 93.1118 79.524 91.8158 79.524ZM98.0767 81H100.147V75.6C100.687 74.268 101.533 73.782 102.235 73.782C102.613 73.782 102.847 73.836 103.153 73.926L103.513 72.126C103.243 72 102.955 71.946 102.505 71.946C101.569 71.946 100.633 72.576 100.003 73.728H99.9307L99.7867 72.162H98.0767V81ZM108.396 81.216C109.512 81.216 110.574 80.82 111.42 80.262L110.718 78.966C110.07 79.38 109.422 79.614 108.666 79.614C107.244 79.614 106.236 78.714 106.056 77.148H111.672C111.726 76.932 111.762 76.536 111.762 76.14C111.762 73.674 110.502 71.946 108.108 71.946C106.038 71.946 104.04 73.71 104.04 76.59C104.04 79.506 105.948 81.216 108.396 81.216ZM106.038 75.744C106.218 74.322 107.118 73.548 108.162 73.548C109.368 73.548 109.962 74.376 109.962 75.744H106.038ZM113.739 81H115.809V74.826C116.493 74.088 117.123 73.728 117.663 73.728C118.599 73.728 119.031 74.268 119.031 75.726V81H121.101V74.826C121.785 74.088 122.397 73.728 122.955 73.728C123.873 73.728 124.305 74.268 124.305 75.726V81H126.393V75.456C126.393 73.224 125.529 71.946 123.657 71.946C122.541 71.946 121.659 72.63 120.813 73.53C120.399 72.54 119.661 71.946 118.365 71.946C117.267 71.946 116.403 72.576 115.665 73.368H115.593L115.449 72.162H113.739V81ZM132.512 81H134.582V72.162H132.512V81ZM133.556 70.614C134.294 70.614 134.834 70.128 134.834 69.444C134.834 68.742 134.294 68.256 133.556 68.256C132.818 68.256 132.278 68.742 132.278 69.444C132.278 70.128 132.818 70.614 133.556 70.614ZM137.223 84.492H139.293V81.72L139.239 80.244C139.959 80.856 140.733 81.216 141.507 81.216C143.469 81.216 145.287 79.47 145.287 76.446C145.287 73.71 144.009 71.946 141.813 71.946C140.841 71.946 139.887 72.468 139.149 73.098H139.077L138.933 72.162H137.223V84.492ZM141.075 79.506C140.553 79.506 139.941 79.308 139.293 78.768V74.646C139.977 73.98 140.589 73.656 141.237 73.656C142.569 73.656 143.145 74.7 143.145 76.464C143.145 78.462 142.245 79.506 141.075 79.506ZM149.779 81.216C152.011 81.216 153.217 79.992 153.217 78.48C153.217 76.824 151.885 76.248 150.679 75.798C149.725 75.456 148.843 75.186 148.843 74.484C148.843 73.926 149.257 73.512 150.139 73.512C150.841 73.512 151.471 73.818 152.083 74.268L153.037 73.008C152.317 72.45 151.327 71.946 150.103 71.946C148.123 71.946 146.881 73.044 146.881 74.592C146.881 76.068 148.195 76.734 149.365 77.166C150.301 77.526 151.255 77.85 151.255 78.588C151.255 79.2 150.805 79.65 149.851 79.65C148.951 79.65 148.195 79.272 147.403 78.66L146.431 79.992C147.295 80.694 148.573 81.216 149.779 81.216ZM157.693 81.216C158.899 81.216 159.763 80.622 160.537 79.704H160.591L160.753 81H162.445V72.162H160.375V78.21C159.709 79.074 159.187 79.434 158.413 79.434C157.459 79.434 157.045 78.894 157.045 77.436V72.162H154.975V77.706C154.975 79.938 155.803 81.216 157.693 81.216ZM165.067 81H167.137V74.826C167.821 74.088 168.451 73.728 168.991 73.728C169.927 73.728 170.359 74.268 170.359 75.726V81H172.429V74.826C173.113 74.088 173.725 73.728 174.283 73.728C175.201 73.728 175.633 74.268 175.633 75.726V81H177.721V75.456C177.721 73.224 176.857 71.946 174.985 71.946C173.869 71.946 172.987 72.63 172.141 73.53C171.727 72.54 170.989 71.946 169.693 71.946C168.595 71.946 167.731 72.576 166.993 73.368H166.921L166.777 72.162H165.067V81Z" fill="white"/>
<path d="M116.714 14.2454C119.316 14.2454 121.433 11.0563 121.433 7.13615C121.433 3.21695 119.316 0.027832 116.714 0.027832C114.111 0.027832 111.994 3.21695 111.994 7.13615C111.994 11.0563 114.111 14.2454 116.714 14.2454Z" fill="#C271FF"/>
<path d="M139.171 14.2454C141.773 14.2454 143.891 11.0563 143.891 7.13615C143.891 3.21695 141.773 0.027832 139.171 0.027832C136.569 0.027832 134.452 3.21695 134.452 7.13615C134.452 11.0563 136.569 14.2454 139.171 14.2454Z" fill="#C271FF"/>
<path d="M148.861 19.9343C148.562 19.6785 148.15 19.6493 147.834 19.867C142.757 23.3359 135.87 25.7484 128.44 26.6608C121.011 27.5728 113.744 26.8982 107.979 24.7611C107.619 24.6278 107.225 24.7545 106.999 25.0749C106.771 25.3959 106.76 25.8422 106.971 26.1858C110.098 31.2912 119.236 34.0023 129.191 32.7799C139.151 31.557 147.362 26.7143 149.159 21.0048C149.279 20.621 149.159 20.1903 148.861 19.9343Z" fill="#C271FF"/>
</svg>
