<svg width="290" height="30" viewBox="0 0 290 30" fill="none" xmlns="http://www.w3.org/2000/svg">
<path d="M0.275875 24H1.65188V10.144C1.65188 8.416 1.52388 6.208 1.45988 4.448H1.58788L3.25188 9.152L7.82788 21.696H9.10788L13.6519 9.152L15.2839 4.448H15.4119C15.3159 6.208 15.2199 8.416 15.2199 10.144V24H16.6599V2.912H14.5479L10.1639 15.296C9.61988 16.832 9.10788 18.4 8.56388 19.968H8.43588C7.89188 18.4 7.31588 16.832 6.77188 15.296L2.35588 2.912H0.275875V24ZM28.3096 24.384C32.0216 24.384 35.2216 21.44 35.2216 16.352C35.2216 11.2 32.0216 8.256 28.3096 8.256C24.6296 8.256 21.4296 11.2 21.4296 16.352C21.4296 21.44 24.6296 24.384 28.3096 24.384ZM28.3096 23.136C25.2056 23.136 22.9016 20.384 22.9016 16.352C22.9016 12.288 25.2056 9.504 28.3096 9.504C31.4136 9.504 33.7496 12.288 33.7496 16.352C33.7496 20.384 31.4136 23.136 28.3096 23.136ZM43.5466 24.384C46.8746 24.384 48.7306 22.368 48.7306 20.064C48.7306 17.056 46.1066 16.256 43.7066 15.36C41.8826 14.688 40.0906 14.016 40.0906 12.256C40.0906 10.848 41.1786 9.472 43.5466 9.472C45.1146 9.472 46.2026 10.08 47.2266 10.848L47.9946 9.856C46.8746 8.928 45.2426 8.256 43.6106 8.256C40.4106 8.256 38.6506 10.112 38.6506 12.352C38.6506 14.976 41.2106 15.904 43.5466 16.736C45.3066 17.376 47.2906 18.208 47.2906 20.128C47.2906 21.76 46.0426 23.168 43.6426 23.168C41.4346 23.168 40.0586 22.304 38.7466 21.216L37.9146 22.272C39.2906 23.424 41.2746 24.384 43.5466 24.384ZM56.3704 24.384C57.0104 24.384 57.9704 24.128 58.8664 23.808L58.4824 22.656C57.9384 22.912 57.1384 23.136 56.5624 23.136C54.4504 23.136 53.9704 21.824 53.9704 19.872V9.856H58.4184V8.64H53.9704V4.192H52.7544L52.5624 8.64L50.1304 8.768V9.856H52.5304V19.744C52.5304 22.496 53.3944 24.384 56.3704 24.384ZM190.558 24.384C191.198 24.384 192.158 24.128 193.054 23.808L192.67 22.656C192.126 22.912 191.326 23.136 190.75 23.136C188.638 23.136 188.158 21.824 188.158 19.872V9.856H192.606V8.64H188.158V4.192H186.942L186.75 8.64L184.318 8.768V9.856H186.718V19.744C186.718 22.496 187.582 24.384 190.558 24.384ZM200.751 24.384C202.863 24.384 204.463 23.2 205.967 21.44H206.031L206.191 24H207.375V8.64H205.967V19.968C204.175 22.144 202.831 23.104 201.007 23.104C198.543 23.104 197.519 21.568 197.519 18.304V8.64H196.111V18.496C196.111 22.464 197.583 24.384 200.751 24.384ZM217.464 24.384C218.104 24.384 219.064 24.128 219.96 23.808L219.576 22.656C219.032 22.912 218.232 23.136 217.656 23.136C215.544 23.136 215.064 21.824 215.064 19.872V9.856H219.512V8.64H215.064V4.192H213.848L213.656 8.64L211.224 8.768V9.856H213.624V19.744C213.624 22.496 214.488 24.384 217.464 24.384ZM228.497 24.384C232.209 24.384 235.409 21.44 235.409 16.352C235.409 11.2 232.209 8.256 228.497 8.256C224.817 8.256 221.617 11.2 221.617 16.352C221.617 21.44 224.817 24.384 228.497 24.384ZM228.497 23.136C225.393 23.136 223.089 20.384 223.089 16.352C223.089 12.288 225.393 9.504 228.497 9.504C231.601 9.504 233.937 12.288 233.937 16.352C233.937 20.384 231.601 23.136 228.497 23.136ZM240.022 24H241.43V13.536C242.614 10.656 244.246 9.6 245.622 9.6C246.23 9.6 246.518 9.664 247.03 9.856L247.35 8.576C246.838 8.32 246.39 8.256 245.814 8.256C243.99 8.256 242.486 9.6 241.462 11.488H241.366L241.238 8.64H240.022V24ZM250.178 24H251.586V8.64H250.178V24ZM250.914 4.928C251.618 4.928 252.194 4.416 252.194 3.68C252.194 2.88 251.618 2.4 250.914 2.4C250.21 2.4 249.634 2.88 249.634 3.68C249.634 4.416 250.21 4.928 250.914 4.928ZM260.851 24.384C262.867 24.384 264.723 23.264 266.291 22.016H266.387L266.515 24H267.731V14.176C267.731 10.88 266.483 8.256 262.867 8.256C260.371 8.256 258.227 9.472 257.139 10.24L257.779 11.296C258.835 10.528 260.627 9.504 262.675 9.504C265.715 9.504 266.355 12.032 266.323 14.368C259.475 15.136 256.403 16.768 256.403 20.16C256.403 23.072 258.419 24.384 260.851 24.384ZM261.107 23.168C259.347 23.168 257.843 22.304 257.843 20.096C257.843 17.664 259.987 16.192 266.323 15.456V20.672C264.403 22.304 262.867 23.168 261.107 23.168ZM275.098 24.384C275.546 24.384 275.834 24.32 276.122 24.224L275.866 23.072C275.546 23.136 275.418 23.136 275.29 23.136C274.906 23.136 274.618 22.816 274.618 22.144V0.991999H273.21V21.952C273.21 23.616 273.85 24.384 275.098 24.384ZM284.515 24.384C287.843 24.384 289.699 22.368 289.699 20.064C289.699 17.056 287.075 16.256 284.675 15.36C282.851 14.688 281.059 14.016 281.059 12.256C281.059 10.848 282.147 9.472 284.515 9.472C286.083 9.472 287.171 10.08 288.195 10.848L288.963 9.856C287.843 8.928 286.211 8.256 284.579 8.256C281.379 8.256 279.619 10.112 279.619 12.352C279.619 14.976 282.179 15.904 284.515 16.736C286.275 17.376 288.259 18.208 288.259 20.128C288.259 21.76 287.011 23.168 284.611 23.168C282.403 23.168 281.027 22.304 279.715 21.216L278.883 22.272C280.259 23.424 282.243 24.384 284.515 24.384Z" fill="#071629"/>
<path d="M67.6894 29.888H72.3934V25.248L72.2334 22.72C73.3534 23.776 74.6334 24.384 76.0094 24.384C79.4334 24.384 82.6974 21.248 82.6974 15.808C82.6974 10.912 80.3294 7.744 76.4894 7.744C74.8254 7.744 73.2254 8.576 71.9774 9.696H71.8494L71.5294 8.128H67.6894V29.888ZM74.9214 20.544C74.1214 20.544 73.2254 20.288 72.3934 19.52V13.024C73.3214 12.032 74.1534 11.584 75.1134 11.584C77.0014 11.584 77.8654 13.024 77.8654 15.872C77.8654 19.136 76.5534 20.544 74.9214 20.544ZM92.8491 24.384C96.8491 24.384 100.561 21.344 100.561 16.064C100.561 10.784 96.8491 7.744 92.8491 7.744C88.8171 7.744 85.1051 10.784 85.1051 16.064C85.1051 21.344 88.8171 24.384 92.8491 24.384ZM92.8491 20.576C90.8971 20.576 89.9371 18.816 89.9371 16.064C89.9371 13.312 90.8971 11.552 92.8491 11.552C94.7691 11.552 95.7611 13.312 95.7611 16.064C95.7611 18.816 94.7691 20.576 92.8491 20.576ZM103.783 29.888H108.487V25.248L108.327 22.72C109.447 23.776 110.727 24.384 112.103 24.384C115.527 24.384 118.791 21.248 118.791 15.808C118.791 10.912 116.423 7.744 112.583 7.744C110.919 7.744 109.319 8.576 108.071 9.696H107.943L107.623 8.128H103.783V29.888ZM111.015 20.544C110.215 20.544 109.319 20.288 108.487 19.52V13.024C109.415 12.032 110.247 11.584 111.207 11.584C113.095 11.584 113.959 13.024 113.959 15.872C113.959 19.136 112.647 20.544 111.015 20.544ZM126.895 24.384C129.071 24.384 130.543 23.392 131.887 21.792H131.983L132.335 24H136.175V8.128H131.471V18.624C130.543 19.872 129.839 20.384 128.655 20.384C127.279 20.384 126.671 19.648 126.671 17.376V8.128H121.967V17.984C121.967 21.952 123.439 24.384 126.895 24.384ZM144.634 24.384C145.69 24.384 146.49 24.224 147.002 24L146.426 20.512C146.17 20.576 146.042 20.576 145.85 20.576C145.466 20.576 145.018 20.256 145.018 19.264V1.568H140.314V19.072C140.314 22.272 141.402 24.384 144.634 24.384ZM153.471 24.384C155.263 24.384 156.735 23.552 158.079 22.368H158.207L158.527 24H162.367V14.912C162.367 10.048 160.127 7.744 156.063 7.744C153.567 7.744 151.295 8.608 149.279 9.824L150.975 12.928C152.511 12.032 153.823 11.488 155.167 11.488C156.895 11.488 157.567 12.384 157.663 13.792C151.391 14.432 148.735 16.256 148.735 19.584C148.735 22.272 150.559 24.384 153.471 24.384ZM155.071 20.736C153.951 20.736 153.247 20.256 153.247 19.232C153.247 18.016 154.335 17.056 157.663 16.608V19.392C156.831 20.224 156.127 20.736 155.071 20.736ZM166.346 24H171.05V14.784C171.882 12.64 173.354 11.872 174.538 11.872C175.21 11.872 175.69 11.968 176.266 12.128L177.034 8.064C176.586 7.872 176.042 7.744 175.146 7.744C173.514 7.744 171.786 8.768 170.634 10.912H170.506L170.186 8.128H166.346V24Z" fill="#C271FF"/>
</svg>
