<svg width="119" height="11" viewBox="0 0 119 11" fill="none" xmlns="http://www.w3.org/2000/svg">
<path d="M0.0672735 10H1.69127V6.416H3.09127L5.06527 10H6.88527L4.70127 6.178C5.79327 5.8 6.52127 4.96 6.52127 3.56C6.52127 1.516 5.06527 0.843999 3.16127 0.843999H0.0672735V10ZM1.69127 5.128V2.146H2.99327C4.23927 2.146 4.92527 2.51 4.92527 3.56C4.92527 4.596 4.23927 5.128 2.99327 5.128H1.69127ZM8.35243 10H14.0084V8.628H9.97643V5.926H13.2664V4.554H9.97643V2.216H13.8684V0.843999H8.35243V10ZM19.7216 10.168C20.9676 10.168 22.0316 9.692 22.6476 9.076V5.044H19.4556V6.374H21.1916V8.348C20.8976 8.614 20.3936 8.754 19.8756 8.754C18.0416 8.754 17.0756 7.494 17.0756 5.408C17.0756 3.35 18.1676 2.09 19.7916 2.09C20.6456 2.09 21.1776 2.44 21.6396 2.888L22.5076 1.838C21.9336 1.25 21.0376 0.676 19.7356 0.676C17.2996 0.676 15.4096 2.454 15.4096 5.45C15.4096 8.488 17.2436 10.168 19.7216 10.168ZM24.6766 10H26.3006V0.843999H24.6766V10ZM31.3018 10.168C33.3598 10.168 34.5918 8.936 34.5918 7.452C34.5918 6.122 33.8218 5.436 32.7438 4.974L31.4978 4.456C30.7418 4.148 30.0418 3.882 30.0418 3.168C30.0418 2.496 30.6158 2.09 31.4838 2.09C32.2678 2.09 32.8838 2.384 33.4718 2.874L34.2978 1.838C33.5838 1.124 32.5478 0.676 31.4838 0.676C29.6918 0.676 28.4038 1.796 28.4038 3.252C28.4038 4.596 29.3558 5.31 30.2518 5.688L31.5118 6.234C32.3378 6.584 32.9258 6.822 32.9258 7.578C32.9258 8.292 32.3658 8.754 31.3298 8.754C30.4898 8.754 29.6078 8.334 28.9498 7.718L27.9978 8.824C28.8658 9.678 30.0698 10.168 31.3018 10.168ZM37.8313 10H39.4553V2.216H42.1013V0.843999H35.1853V2.216H37.8313V10ZM43.6259 10H49.2819V8.628H45.2499V5.926H48.5399V4.554H45.2499V2.216H49.1419V0.843999H43.6259V10ZM51.1591 10H52.7831V6.416H54.1831L56.1571 10H57.9771L55.7931 6.178C56.8851 5.8 57.6131 4.96 57.6131 3.56C57.6131 1.516 56.1571 0.843999 54.2531 0.843999H51.1591V10ZM52.7831 5.128V2.146H54.0851C55.3311 2.146 56.0171 2.51 56.0171 3.56C56.0171 4.596 55.3311 5.128 54.0851 5.128H52.7831ZM62.247 10H63.871V6.178H67.203V4.806H63.871V2.216H67.777V0.843999H62.247V10ZM72.803 10.168C75.197 10.168 76.849 8.348 76.849 5.38C76.849 2.426 75.197 0.676 72.803 0.676C70.423 0.676 68.771 2.426 68.771 5.38C68.771 8.348 70.423 10.168 72.803 10.168ZM72.803 8.754C71.361 8.754 70.437 7.438 70.437 5.38C70.437 3.336 71.361 2.09 72.803 2.09C74.245 2.09 75.169 3.336 75.169 5.38C75.169 7.438 74.245 8.754 72.803 8.754ZM78.6806 10H80.3046V6.416H81.7046L83.6786 10H85.4986L83.3146 6.178C84.4066 5.8 85.1346 4.96 85.1346 3.56C85.1346 1.516 83.6786 0.843999 81.7746 0.843999H78.6806V10ZM80.3046 5.128V2.146H81.6066C82.8526 2.146 83.5386 2.51 83.5386 3.56C83.5386 4.596 82.8526 5.128 81.6066 5.128H80.3046ZM89.7684 10H91.3924V6.178H94.7244V4.806H91.3924V2.216H95.2984V0.843999H89.7684V10ZM96.9052 10H98.5292V6.416H99.9292L101.903 10H103.723L101.539 6.178C102.631 5.8 103.359 4.96 103.359 3.56C103.359 1.516 101.903 0.843999 99.9992 0.843999H96.9052V10ZM98.5292 5.128V2.146H99.8312C101.077 2.146 101.763 2.51 101.763 3.56C101.763 4.596 101.077 5.128 99.8312 5.128H98.5292ZM105.19 10H110.846V8.628H106.814V5.926H110.104V4.554H106.814V2.216H110.706V0.843999H105.19V10ZM112.724 10H118.38V8.628H114.348V5.926H117.638V4.554H114.348V2.216H118.24V0.843999H112.724V10Z" fill="white"/>
</svg>
